<svg xmlns="http://www.w3.org/2000/svg" xmlns:xlink="http://www.w3.org/1999/xlink" width="1141" height="243" viewBox="0 0 1141 243">
	<style type="text/css">

		#logo {
		width: 70vw;
		max-width: 668px;
		}

		.name path {
		fill: transparent;
		stroke: white;
		stroke-dasharray: 850; stroke-dashoffset: 850;
		animation: drawing 2s ease forwards;
		}

		.name path:nth-child(2) { animation-delay: .25s; }
		.name path:nth-child(3) { animation-delay: .5s; }
		.name path:nth-child(4) { animation-delay: .75s; }
		.name path:nth-child(5) { animation-delay: 1s; }
		.name path:nth-child(6) { animation-delay: 1.25s; }
		.name path:nth-child(7) { animation-delay: 1.5s; }
		.name path:nth-child(8) { animation-delay: 1.75s; }
		.name path:nth-child(9) { animation-delay: 2s; }
		.name path:nth-child(10) { animation-delay: 2.25s; }
		.name path:nth-child(11) { animation-delay: 2.5s; }
		.name path:nth-child(12) { animation-delay: 2.75s; }
		.name path:nth-child(13) { animation-delay: 3s; }
		.name path:nth-child(14) { animation-delay: 3.25s; }

		@-webkit-keyframes drawing {
		30% { fill: transparent; }
		80% { stroke-dashoffset: 0; }
		100% { fill: rgb(15,48,87); }
		}

	</style>
	<defs>
		<clipPath id="clip-Histoire_Instagram_1">
		<rect width="1141" height="243"/>
		</clipPath>
	</defs>
	<g id="Histoire_Instagram_1" data-name="Histoire Instagram – 1" clip-path="url(#clip-Histoire_Instagram_1)">
		<rect width="1141" height="243" fill="#fff"/>
		<g id="logo" transform="translate(-128.724 17.462)">
		<g id="name" data-name="Groupe 3">
			<g id="first" data-name="Groupe 2">
			<path id="Tracé_1" data-name="Tracé 1" d="M302.3,175.5c3.7.5,5.7,5,4.9,8.4-1,3.8-4.7,5.2-8.4,4.7a224.985,224.985,0,0,1-49.6-12.9c-9.4-3.5-18.8-8.2-28.5-11.3-5.7,9.6-12.9,18.6-22.1,23.8-6.3,3.7-14.1,5.7-21.1,3a17.9,17.9,0,0,1-11.3-17.1c.5-16.4,16.9-25.4,31.3-26.6a54.725,54.725,0,0,1,15.1.7c11.3-21.4,17.7-46.3,21.1-69.6,2.4-17.7,7-53.1-15.3-61.1C206.7,13.3,194,19.9,186,28.1c-9.6,9.9-14.6,23-20.2,35.3-1.4,3-5.7.9-5-2.1,4.3-17.4,10.4-36.7,25.2-48.2C199.3,2.9,217.9-.6,232,9.9c25.6,18.8,18.6,60.5,13.4,87a243.972,243.972,0,0,1-17.1,52.9,16.531,16.531,0,0,1-1.4,2.6c7,2.4,13.7,5.4,20.2,8a254.655,254.655,0,0,0,55.3,15.1h-.1ZM205,160.9h-.5c-6.4-.5-13.9.2-19.1,4.3-2.6,2.1-6.8,7.3-4.9,10.8,2.6,4.7,10.6-.2,13.2-2.1C198.2,170.5,201.9,165.6,205,160.9Z"/>
			<path id="Tracé_2" data-name="Tracé 2" d="M347.9,119.3a3.842,3.842,0,0,1-1,4.2c-4.5,4-10.8,7-18.6,8.9a75.948,75.948,0,0,1-4.7,12.9c-4.9,9.9-16.2,24.7-27.8,24.7a14.12,14.12,0,0,1-8.4-2.8c-4.7-3.3-7.3-9.4-7.5-17.6-.3-11.1,3-23.8,8.7-34.1a29.171,29.171,0,0,1,5-21.9c3.8-5.4,10.8-11.1,18.6-11.1a15.213,15.213,0,0,1,7.8,2.1c11.5,7,11.8,24.5,11.7,29.8-.2,3-.5,5.9-1,9a39.837,39.837,0,0,0,11.5-5.7,3.523,3.523,0,0,1,2.1-.7,4.321,4.321,0,0,1,3.8,3Zm-54.3,39a5.374,5.374,0,0,0,2.1.5c7,0,14.6-12.7,17.7-19.5.7-1.6,1.4-3.3,2.1-5.2h-1c-9.7,0-17.4-3.3-22.1-9.4l-.5-.5c-.2,1-.3,2.1-.5,3.1-1.4,6.8-2.8,13.7-2.3,20.7.3,5.9,1.7,9.2,4.2,10.3Zm6.1-52.7a14.691,14.691,0,0,0,.5,11.5,13.34,13.34,0,0,0,7.7,6.4,30.437,30.437,0,0,0,9.4,1.4h1a60.129,60.129,0,0,0,1-8.4c.9-10.4-.7-17.9-4.7-21.6a4.665,4.665,0,0,0-3.3-1.2c-4.9,0-10.4,7.8-11.8,12Z"/>
			<path id="Tracé_3" data-name="Tracé 3" d="M414,119c1.6-3.7,7-2.3,6.1,1.7-1.6,7.8-4.9,15.3-8.5,22.4-2.6,5.4-5.4,11.5-9.6,15.8-4.7,4.9-12.2,7.5-18.8,5.6-9.2-2.8-11.5-12.9-10.4-21.4.2-1.2.3-2.4.5-3.7a58.523,58.523,0,0,1-5.4,4.5c-4.9,3.8-11.7,5.6-17.4,2.6-8.7-4.5-9.9-16.4-8.5-24.9,1.2-8,5-19.7,12-24.7,3.5-2.6,6.8,2.3,5.2,5.4-2.6,5.7-4.3,12.5-5.6,18.8-.7,4-2.1,13.4,2.4,15.8,3.1,1.6,7.5-2.6,9.9-4.7,6.1-5.2,10.4-11.5,15-17.9,2.3-6.3,4.9-12.5,8.5-17.7,3-4.2,8.7-1.4,8,3.3-2.1,13.2-7.5,26.1-11,39-.9,3.5-2.1,7.7-1.4,11.3a6.166,6.166,0,0,0,1.4,3c2.4,1.2,6.3-.2,8.7-2.6,8.5-8.4,14.1-20.5,18.4-31.3Z"/>
			<path id="Tracé_4" data-name="Tracé 4" d="M451.2,118.5c1.6-2.1,5.2-.9,4.5,1.9-2.6,9.7-8.7,18.8-15,26.4-5.7,7.1-15,22.1-26.1,16.5-10.3-5.2-6.6-20.9-5.2-29.8,1.7-11.7,5.6-23,10.1-33.8,3-6.8,14.1-4.2,11.7,3.3-3,8.5-6.4,16.9-8.9,25.6-1,3.8-1.9,7.7-2.6,11.5-.7,3.1-3.1,10.1-1.2,13,2.6,4.4,16.2-11.1,19-14.3,5.4-6.3,8.9-13.6,13.6-20.2ZM431.8,88c-3.1,3.5-8.4-.2-7.5-4.4a46.06,46.06,0,0,1,3.3-9.9c1.4-3.1,2.8-7,5.4-9.2,3.3-2.8,9.9-1.4,9.4,3.8-.5,7-6.3,14.4-11,19.5Z"/>
			<path id="Tracé_5" data-name="Tracé 5" d="M507.1,117.1c4.2-2.6,8,4,3.8,6.6A393.61,393.61,0,0,0,477.3,147c5.2,5.6,10.4,11,14.1,17.7,4.7,9,6.3,19.7,1.6,29.1a26.409,26.409,0,0,1-22.3,14.6c-20.9,1-33.9-21.2-27-39.8,3.1-8.4,10.6-14.8,18.1-20.4a73.641,73.641,0,0,1-6.6-9.2c-4.3-7.3-7-16.4-4.5-24.7,2.1-7.3,7.8-13.2,15.5-13.7,4.2-.3,5.7,5.9,2.1,7.8-11.8,6.3-6.1,20.5.2,28.7,1,1.2,2.1,2.4,3.1,3.7,11.5-8.4,23.1-16.7,35.3-24Zm-24.4,69c3.3-9.4-3.7-19-9.4-25.6-1.7-2.1-3.7-4.2-5.6-6.3-6.8,5.2-13.7,11.3-15.5,19-1.9,8.7,1.6,19.1,10.4,22.3a15.247,15.247,0,0,0,19.8-9.4Z"/>
			</g>
			<g id="last" data-name="Groupe 1" transform="translate(0 -0.339)">
			<path id="Tracé_6" data-name="Tracé 6" d="M99,311.1c8.7,14.3,14.8,31.8,13.4,48.7-1,14.4-9.9,32.4-25.2,36.4-15,3.8-24.4-12.5-23.5-25.4,1-15.8,12.9-27.5,24.9-36.4,3.5-2.6,7.3,3,4.5,5.9-7.8,8-18.1,16.2-19.8,28-.7,4.9,0,10.3,3.1,14.3,4.2,5.2,9.6,3.8,14.1-.2,17.7-15.7,11.8-42.1,2.3-61.2-9.6,11.8-22.6,22.4-37.4,25.4-15,3-30.6-1.4-39.1-14.6-8.9-13.6-7-30.8-.2-44.7a65.324,65.324,0,0,1,32.4-31.7c13.9-6.1,32.9-7.3,45.9,1.6a2.745,2.745,0,0,1-2.1,5c-8.7-2.1-16.9-3.8-25.8-2.3a49.93,49.93,0,0,0-21.9,9.4c-12.7,9.2-23.1,25.1-23,41.1.2,16.5,13.4,27.7,29.8,24.9,16.7-3,26.3-16.5,37.2-27.8,3.3-3.5,8.7-1,9.9,2.8a6.07,6.07,0,0,1,.7,1Z" transform="translate(535 -190)"/>
			<path id="Tracé_7" data-name="Tracé 7" d="M198,309.3a3.842,3.842,0,0,1-1,4.2c-4.5,4-10.8,7-18.6,8.9a75.95,75.95,0,0,1-4.7,12.9c-4.9,9.9-16.2,24.7-27.8,24.7a14.12,14.12,0,0,1-8.4-2.8c-4.7-3.3-7.3-9.4-7.5-17.6-.3-11.1,3-23.8,8.7-34.1a29.171,29.171,0,0,1,5-21.9c3.8-5.4,10.8-11.1,18.6-11.1a15.213,15.213,0,0,1,7.8,2.1c11.5,7,11.8,24.5,11.7,29.8-.2,3-.5,5.9-1,9a39.836,39.836,0,0,0,11.5-5.7,3.523,3.523,0,0,1,2.1-.7,4.321,4.321,0,0,1,3.8,3Zm-54.3,39a5.374,5.374,0,0,0,2.1.5c7,0,14.6-12.7,17.7-19.5.7-1.6,1.4-3.3,2.1-5.2h-1c-9.7,0-17.4-3.3-22.1-9.4l-.5-.5c-.2,1-.3,2.1-.5,3.1-1.4,6.8-2.8,13.7-2.3,20.7.3,5.9,1.7,9.2,4.2,10.3Zm6.1-52.7a14.691,14.691,0,0,0,.5,11.5,13.339,13.339,0,0,0,7.7,6.4,30.438,30.438,0,0,0,9.4,1.4h1a60.129,60.129,0,0,0,1-8.4c.9-10.4-.7-17.9-4.7-21.6a4.665,4.665,0,0,0-3.3-1.2c-4.9,0-10.4,7.8-11.8,12Z" transform="translate(535 -190)"/>
			<path id="Tracé_8" data-name="Tracé 8" d="M249.1,294.7c-.7,4.7-1.2,9.6-1.7,14.4-1.4,12-2.8,27.8,4.5,38.3,2.6,3.7,3.8,3.7,7.1,1,4.7-3.7,7.8-9.4,10.6-14.4,3.1-5.6,5.9-11.5,8.5-17.4.9-2.1,1.7-4.2,2.6-6.3.3-.7,1.4-3.1.7-1.4,2.1-5.6,11-3.1,8.9,2.4-5,13.9-10.4,27.8-19.8,39.5-4,5-9.7,10.4-16.7,9.4-9.9-1.4-14.1-13.7-15.7-22.1a86.614,86.614,0,0,1-.9-24.4c-.2.3-.3.7-.5,1-4.5,5.9-9.9,12-16.4,15.8-13.2,8.2-28.4-2.8-29.6-17.1-1.2-14.1,8.7-27.8,21.7-32.4,9-3.1,21.9-.9,28.4,6.8,2.6-17.2,6.6-34.3,13-50.6,4.9-12.4,11.1-27,24.2-32.4,5.7-2.4,13.4-2.8,18.4,1.4,5.4,4.5,6.1,12.2,5.7,18.8-1.2,31.7-27,54.8-52.9,69.4h-.1Zm-18.4,8.7c1.7-2.8,3.1-5.7,4.7-8.7-5.7-3.3-11.7-5.2-18.6-2.8-8,3-14.6,11.1-14.4,19.8.2,4.2,2.4,8.9,7,9.7,4.7.9,9-4.2,12.2-7.1a62.558,62.558,0,0,0,9-11.5Zm23.7-37.6c-1.7,7.3-3.1,14.8-4.4,22.3,21.1-16.7,44.4-37.4,42.1-66.6-.3-4-.9-8-5.7-8.4-2.6-.2-5.4,1-7.7,2.4-4.7,3-8,7.8-10.6,12.7-6.4,11.7-10.4,24.9-13.6,37.8Z" transform="translate(535 -190)"/>
			<path id="Tracé_9" data-name="Tracé 9" d="M356.1,307.8c3-4.5,10.3-.2,7.7,4.7l-.5,1c-.5,1-1,2.1-1.6,3.1-1.9,3.5-4,7-6.1,10.4a301,301,0,0,1-19.8,28.5c-8.5,10.8-26.6,33.9-43.2,25.2-9.6-5-12.4-18.3-13.6-28-1.6-12.5.2-24.9,2.1-37.4a247.11,247.11,0,0,1,7.8-35.1c6.3-19.8,16.2-39.1,31.8-53.1,6.6-5.9,15.5-12,24.7-9.7,9,2.1,13.6,11.1,13,19.8-.9,17.4-12.9,35.7-25.1,47.5-11.8,11.5-26.4,19.8-41.9,25.2-.5,3.3-1,6.6-1.6,9.9-2.3,15.1-4.7,34.1,3.5,48,3,5,6.1,5.9,11,4,6.8-2.8,12.5-8.9,17.4-14.3a220.108,220.108,0,0,0,16.9-21.6c4.5-6.4,8.7-13,12.7-19.8a62.542,62.542,0,0,1,3.8-6.1c.3-.5.7-1,1-1.6a3.189,3.189,0,0,1,.5-.9h-.5Zm-64.5-2.3c13.9-7,27.1-15.3,37.6-27a93.911,93.911,0,0,0,14.3-21.9c3.3-7.3,10.3-23,1.6-28.9-8-5.6-19.3,6.6-24.2,11.8a89.816,89.816,0,0,0-15,21.6C298.7,275.1,294.5,290.2,291.6,305.5Zm65.2,2.4v0Z" transform="translate(535 -190)"/>
			<path id="Tracé_10" data-name="Tracé 10" d="M414.3,308.6c2.6-4.5,9.6-.5,7,4,1-1.7,0,.2-.3.7-.3.7-.7,1.4-1,2.1a68.947,68.947,0,0,1-4,6.4,173.81,173.81,0,0,1-13.9,18.1c-7.5,8.4-19.1,20.2-31.7,17.4-21.8-4.7-18.8-35.5-12.5-50.6,4-9.6,9.9-19.3,18.4-25.2,7-4.9,18.4-7.1,23.7,1.4,5.4,8.7-2.6,20.2-8.4,26.4a108.908,108.908,0,0,1-27.5,21.1,2.654,2.654,0,0,1-1.7.2v2.1c.5,6.3,3.5,15.8,11.3,15.8,3.8,0,7.5-2.4,10.4-4.5,8.2-5.9,14.6-14.3,20.5-22.3,2.3-3.3,4.5-6.6,6.8-9.9.7-.9,1.4-1.7,2.1-2.6.3-.5,1.4-2.3.5-.9ZM382.4,289c-12,7.3-19.5,24.4-20,38.8a116.243,116.243,0,0,0,23.1-21.2,35.066,35.066,0,0,0,7-12.5c2.1-8.2-4.7-8.2-10.1-4.9Z" transform="translate(535 -190)"/>
			<path id="Tracé_11" data-name="Tracé 11" d="M538.8,305.7c3.3-2.4,8,2.4,5.7,5.7-6.1,8.7-18.4,16.2-30.1,17.2-1.2,3.7-2.6,7.3-4,11-5.7,14.3-21.1,47.8-41.9,33.8-7.8-5.2-11.7-15.1-13.4-24-.5-3-1-6.1-1.4-9.2l-2.1,4.2c-5.9,10.8-15.5,22.6-29.4,19.7-13.4-2.8-15-17.6-14.4-28.9.7-13.9,5.2-28.7,14.1-39.5,1.9-2.3,4.9.7,3.8,3-4.7,10.6-9,20.9-9.7,32.7-.3,7.1-1.2,23,9,23.7,10.6.7,16.4-12.4,20-20.2a74.186,74.186,0,0,0,7.1-24.9c.5-4.9,8.2-7,9.6-1.9a2.348,2.348,0,0,1,.5,1.6v3.1a29.536,29.536,0,0,1-.2,4.2c-.5,9.2-1.2,18.3.9,27.7,1.6,7.1,4.4,16.7,11,20.9,13.4,8.4,24.2-21.4,27.3-29.6,1-2.4,1.9-5,2.8-7.7a20.639,20.639,0,0,1-11-8.5c-6.8-10.4-8.9-25.1-6.1-37.1,2.4-10.1,12-27.3,24.7-22.1,5.2,2.1,7.5,7.7,8.5,12.9a91.732,91.732,0,0,1,1.2,24,106.67,106.67,0,0,1-3.7,21.9c8-2.4,16.2-8.7,21.7-12.9Zm-29.5-2.8a99,99,0,0,0,1.2-18.8c-.2-3.5.2-12.5-3.1-15.1-4.2-3.3-10.1,8-11.1,11a36.293,36.293,0,0,0-2.1,14.3c.3,7.8,2.8,20.7,11,24,.3.2.7.3,1,.5a123.278,123.278,0,0,0,3.7-15.7Z" transform="translate(535 -190)"/>
			<path id="Tracé_12" data-name="Tracé 12" d="M595.9,307.1c4.2-2.6,8,4,3.8,6.6A393.608,393.608,0,0,0,566.1,337c5.2,5.6,10.4,11,14.1,17.7,4.7,9,6.3,19.7,1.6,29.1a26.409,26.409,0,0,1-22.3,14.6c-20.9,1-33.9-21.2-27-39.8,3.1-8.4,10.6-14.8,18.1-20.4A73.634,73.634,0,0,1,544,329c-4.4-7.3-7-16.4-4.5-24.7,2.1-7.3,7.8-13.2,15.5-13.7,4.2-.3,5.7,5.9,2.1,7.8-11.8,6.3-6.1,20.5.2,28.7,1,1.2,2.1,2.4,3.1,3.7,11.5-8.4,23.1-16.7,35.3-24Zm-24.3,69c3.3-9.4-3.7-19-9.4-25.6-1.7-2.1-3.7-4.2-5.6-6.3-6.8,5.2-13.7,11.3-15.5,19-1.9,8.7,1.6,19.1,10.4,22.3a15.247,15.247,0,0,0,19.8-9.4Z" transform="translate(535 -190)"/>
			<path id="Tracé_13" data-name="Tracé 13" d="M662.2,309c1.6-3.3,6.3-1.4,6.4,1.7.3,7.1-4.2,15.8-7.1,22.1-3.7,8-8.5,16-15.1,21.7-6.8,5.9-15.8,9.4-24.4,5-8.2-4.2-12.4-12.7-14.3-21.4h-.5c-.3,1.7-.7,3.5-1,5.4a7.487,7.487,0,0,0,.2,2.1,4.855,4.855,0,0,1-1.4,4.2.551.551,0,0,1-.5.2c-2.4,2.1-6.8,1.9-7.5-2.3-4.9-27.5-.5-55.7,4.7-82.8,4.2-21.4,10.4-43,25.2-59.5,6.3-7,15.3-15,25.1-15.5,9.7-.5,15.5,7,16.7,16,2.6,20.7-5,44-15.8,61.4-11.3,18.1-29.2,34.3-47.8,44.9-.2,3.1-.3,6.3-.3,9.4,4.7-7.8,12.2-13.9,20.4-14.3,9.7-.3,13.6,10.6,8.9,18.1-3.8,6.3-12,9.9-19.8,11.3,3.3,7,7.7,14.4,15.3,14.4,5.9,0,11.3-5.2,15-9.2a81.1,81.1,0,0,0,11-17.4c2.6-5.2,3.8-11,6.3-16Zm-53.4-26.8c-1.2,7.5-2.3,15-3,22.6,6.3-5.9,13-11.3,19.1-17.4A127.789,127.789,0,0,0,645.3,262c9-15.5,15-34.6,13.9-52.7-.3-4.5-1.7-9.4-7.3-8.9-4,.3-8.4,3.7-11.3,6.1a68.149,68.149,0,0,0-16.4,20.2c-9.2,16.9-12.4,36.5-15.5,55.3v.2Zm8.5,38.8a33.865,33.865,0,0,0-5.9,6.8c4.9-.7,9.9-2.1,13.6-5.2,2.3-1.9,3.3-5.6-.9-5.2-2.3.2-5,2.4-6.8,3.8V321Z" transform="translate(535 -190)"/>
			<path id="Tracé_14" data-name="Tracé 14" d="M698.4,308.5c1.6-2.1,5.2-.9,4.5,1.9-2.6,9.7-8.7,18.8-15,26.4-5.7,7.1-15,22.1-26.1,16.5-10.3-5.2-6.6-20.9-5.2-29.8,1.7-11.7,5.6-23,10.1-33.8,3-6.8,14.1-4.2,11.7,3.3-3,8.5-6.4,16.9-8.9,25.6-1,3.8-1.9,7.7-2.6,11.5-.7,3.1-3.1,10.1-1.2,13,2.6,4.4,16.2-11.1,19-14.3,5.4-6.3,8.9-13.6,13.6-20.2ZM678.9,278c-3.1,3.5-8.4-.2-7.5-4.4a46.061,46.061,0,0,1,3.3-9.9c1.4-3.1,2.8-7,5.4-9.2,3.3-2.8,9.9-1.4,9.4,3.8-.5,7-6.3,14.4-11,19.5Z" transform="translate(535 -190)"/>
			</g>
		</g>
		</g>
	</g>
</svg>
